<svg width="81" height="81" viewBox="0 0 81 81" fill="none" xmlns="http://www.w3.org/2000/svg">
<path fill-rule="evenodd" clip-rule="evenodd" d="M58.0259 29.5211C56.7295 28.2247 54.6276 28.2247 53.3312 29.5211L34.8106 48.0417L27.5772 40.8082C26.2808 39.5118 24.1789 39.5118 22.8825 40.8082C21.5861 42.1047 21.5861 44.2066 22.8825 45.503L31.9755 54.5961C32.0555 54.676 32.138 54.7519 32.2229 54.8236C32.2964 54.9145 32.3754 55.0025 32.46 55.0871C33.7564 56.3835 35.8583 56.3835 37.1547 55.0871L58.0259 34.2159C59.3223 32.9194 59.3223 30.8175 58.0259 29.5211Z" fill="#33CC66"/>
<path fill-rule="evenodd" clip-rule="evenodd" d="M10 0C4.47715 0 0 4.47715 0 10V71C0 76.5229 4.47715 81 10 81H71C76.5229 81 81 76.5229 81 71V10C81 4.47715 76.5229 0 71 0H10ZM40.832 68.3852C56.4159 68.3852 69.0492 55.752 69.0492 40.168C69.0492 24.5841 56.4159 11.9508 40.832 11.9508C25.248 11.9508 12.6148 24.5841 12.6148 40.168C12.6148 55.752 25.248 68.3852 40.832 68.3852Z" fill="#33CC66"/>
</svg>
